<svg width="1024" height="1024" viewBox="0 0 1024 1024" fill="none" xmlns="http://www.w3.org/2000/svg">
  <defs>
    <radialGradient id="bg" cx="0" cy="0" r="1" gradientUnits="userSpaceOnUse" gradientTransform="translate(332 210) rotate(56) scale(940)">
      <stop stop-color="#1D3A31"/>
      <stop offset="0.52" stop-color="#0A1515"/>
      <stop offset="1" stop-color="#050708"/>
    </radialGradient>
    <linearGradient id="leaf" x1="246" y1="318" x2="795" y2="747" gradientUnits="userSpaceOnUse">
      <stop stop-color="#D8FFE6"/>
      <stop offset="0.44" stop-color="#6DF3B7"/>
      <stop offset="1" stop-color="#D7B46D"/>
    </linearGradient>
    <linearGradient id="gold" x1="252" y1="651" x2="793" y2="378" gradientUnits="userSpaceOnUse">
      <stop stop-color="#F5E2A0"/>
      <stop offset="0.5" stop-color="#C89542"/>
      <stop offset="1" stop-color="#8FF2C9"/>
    </linearGradient>
    <filter id="softGlow" x="120" y="148" width="786" height="748" filterUnits="userSpaceOnUse" color-interpolation-filters="sRGB">
      <feGaussianBlur stdDeviation="10"/>
    </filter>
  </defs>
  <rect x="82" y="82" width="860" height="860" rx="214" fill="url(#bg)"/>
  <rect x="84" y="84" width="856" height="856" rx="212" stroke="white" stroke-opacity="0.07" stroke-width="4"/>
  <circle cx="512" cy="512" r="286" stroke="#D9FBEA" stroke-opacity="0.16" stroke-width="2"/>
  <circle cx="512" cy="512" r="216" stroke="#D7B46D" stroke-opacity="0.18" stroke-width="2"/>
  <g opacity="0.24">
    <circle cx="512" cy="512" r="130" stroke="#E8D28C" stroke-width="1.5"/>
    <circle cx="512" cy="512" r="154" stroke="#E8D28C" stroke-width="1.5"/>
    <circle cx="512" cy="512" r="178" stroke="#E8D28C" stroke-width="1.5"/>
    <circle cx="512" cy="512" r="202" stroke="#E8D28C" stroke-width="1.5"/>
  </g>
  <path d="M250 522C348 342 538 258 778 304C657 368 603 494 548 627C500 737 394 772 286 736C354 666 397 591 434 526C378 528 318 528 250 522Z" fill="#0C211D" fill-opacity="0.7"/>
  <path d="M250 522C348 342 538 258 778 304C657 368 603 494 548 627C500 737 394 772 286 736C354 666 397 591 434 526C378 528 318 528 250 522Z" stroke="url(#leaf)" stroke-width="17" stroke-linejoin="round"/>
  <path d="M252 648C372 704 467 666 574 548C646 468 722 436 794 430" stroke="url(#gold)" stroke-width="22" stroke-linecap="round"/>
  <path d="M252 648C372 704 467 666 574 548C646 468 722 436 794 430" stroke="#FFF0B8" stroke-opacity="0.34" stroke-width="6" stroke-linecap="round"/>
  <g filter="url(#softGlow)" opacity="0.38">
    <path d="M252 510C332 330 498 251 772 282" stroke="#73F7B9" stroke-width="18" stroke-linecap="round"/>
    <path d="M260 640C369 690 479 654 590 532C651 465 720 429 792 424" stroke="#E9C06D" stroke-width="18" stroke-linecap="round"/>
  </g>
  <circle cx="512" cy="512" r="45" fill="#101413" stroke="#D5AE5E" stroke-width="10"/>
  <circle cx="512" cy="512" r="16" fill="#EBD08B"/>
</svg>
